<?xml version="1.0" encoding="UTF-8" standalone="no"?>
<svg
   xmlns:dc="http://purl.org/dc/elements/1.1/"
   xmlns:cc="http://creativecommons.org/ns#"
   xmlns:rdf="http://www.w3.org/1999/02/22-rdf-syntax-ns#"
   xmlns:svg="http://www.w3.org/2000/svg"
   xmlns="http://www.w3.org/2000/svg"
   xmlns:sodipodi="http://sodipodi.sourceforge.net/DTD/sodipodi-0.dtd"
   xmlns:inkscape="http://www.inkscape.org/namespaces/inkscape"
   version="1.0"
   width="1024.000000pt"
   height="1024.000000pt"
   viewBox="0 0 1024.000000 1024.000000"
   preserveAspectRatio="xMidYMid meet"
   id="svg4033"
   sodipodi:docname="skeg_wip_2.svg"
   inkscape:version="0.92.3 (2405546, 2018-03-11)"
   inkscape:export-filename="C:\Users\hzimmerman\Downloads\skeg_wip_gradiant.png"
   inkscape:export-xdpi="96"
   inkscape:export-ydpi="96">
  <metadata
     id="metadata4039">
    <rdf:RDF>
      <cc:Work
         rdf:about="">
        <dc:format>image/svg+xml</dc:format>
        <dc:type
           rdf:resource="http://purl.org/dc/dcmitype/StillImage" />
        <dc:title></dc:title>
      </cc:Work>
    </rdf:RDF>
  </metadata>
  <defs
     id="defs4037" />
  <sodipodi:namedview
     pagecolor="#ffffff"
     bordercolor="#666666"
     borderopacity="1"
     objecttolerance="10"
     gridtolerance="10"
     guidetolerance="10"
     inkscape:pageopacity="0"
     inkscape:pageshadow="2"
     inkscape:window-width="4096"
     inkscape:window-height="2097"
     id="namedview4035"
     showgrid="true"
     inkscape:zoom="1"
     inkscape:cx="41.065647"
     inkscape:cy="561.98539"
     inkscape:window-x="1912"
     inkscape:window-y="-8"
     inkscape:window-maximized="1"
     inkscape:current-layer="svg4033">
    <inkscape:grid
       type="xygrid"
       id="grid4961" />
  </sodipodi:namedview>
  <path
     style="fill:none;fill-opacity:1;stroke:#000000;stroke-width:5.25;stroke-linecap:butt;stroke-linejoin:round;stroke-miterlimit:4;stroke-dasharray:none;stroke-opacity:1"
     d="m 175.93824,256.03581 h 461.56174 v 227.96418 l 156.78671,0.0414 v 280.2723 C 793.76053,1183.7957 373.55647,485.65541 175.93824,256.03581 Z"
     id="path4124"
     inkscape:connector-curvature="0"
     sodipodi:nodetypes="cccccc"
     inkscape:export-xdpi="96"
     inkscape:export-ydpi="96" />
  <rect
     style="opacity:0;fill:#000000;stroke-width:5.25;stroke-linejoin:round;stroke-miterlimit:4;stroke-dasharray:none"
     id="rect4933"
     width="12.746902"
     height="103.03734"
     x="382.70682"
     y="149.33859"
     inkscape:export-xdpi="96"
     inkscape:export-ydpi="96" />
  <rect
     style="opacity:1;fill:#000000;fill-opacity:1;stroke-width:0.19452734;stroke-linejoin:round;stroke-miterlimit:4;stroke-dasharray:none;paint-order:stroke fill markers"
     id="rect4947"
     width="12.750029"
     height="183.36824"
     x="327.78671"
     y="70.563713"
     inkscape:export-xdpi="96"
     inkscape:export-ydpi="96" />
  <rect
     y="70.563713"
     x="556.53668"
     height="183.42137"
     width="12.750011"
     id="rect4959"
     style="opacity:1;fill:#000000;fill-opacity:1;stroke-width:0.19455539;stroke-linejoin:round;stroke-miterlimit:4;stroke-dasharray:none;paint-order:stroke fill markers"
     inkscape:export-xdpi="96"
     inkscape:export-ydpi="96" />
  <path
     style="fill:#000000;stroke:#000000;stroke-width:0.75;stroke-linecap:butt;stroke-linejoin:round;stroke-miterlimit:30.29999924;stroke-dasharray:none;stroke-opacity:1"
     d="m 549.7867,134.31371 c 23.31024,2.11957 17.99998,1.10158 26.99999,0.75 3.27181,-0.81573 3.73539,-4.02494 4.84637,-6.04114 l 13.90364,-17.95886 -11.25,-9 -12.75,17.25 c -5.42041,-1.05469 -11.20498,-0.94405 -17.25,0 l -12.75,-20.601554 -12,10.101554 16.86504,21.23745 c 1.88496,2.48548 0.38496,3.91585 3.38496,4.26255 z"
     id="path4977"
     inkscape:connector-curvature="0"
     sodipodi:nodetypes="ccccccccccc"
     inkscape:export-xdpi="96"
     inkscape:export-ydpi="96" />
  <path
     sodipodi:nodetypes="ccccccccccc"
     inkscape:connector-curvature="0"
     id="path4981"
     d="m 321.03671,134.31371 c 23.31024,2.11957 17.99998,1.10158 26.99999,0.75 3.27181,-0.81573 3.73539,-4.02494 4.84637,-6.04114 l 13.90364,-17.95886 -11.25,-9 -12.75,17.25 c -5.42041,-1.05469 -11.20498,-0.94405 -17.25,0 l -12.75,-20.601554 -12,10.101554 16.86504,21.23745 c 1.88496,2.48548 0.38496,3.91585 3.38496,4.26255 z"
     style="fill:#000000;stroke:#000000;stroke-width:0.75;stroke-linecap:butt;stroke-linejoin:round;stroke-miterlimit:30.29999924;stroke-dasharray:none;stroke-opacity:1"
     inkscape:export-xdpi="96"
     inkscape:export-ydpi="96" />
  <path
     style="opacity:1;fill:none;fill-opacity:1;stroke-width:1;stroke-linejoin:round;stroke-miterlimit:30.29999924;stroke-dasharray:none;paint-order:stroke fill markers"
     d="M 974.40341,1189.7184 C 937.20745,1184.9789 878.88448,1142.8503 811.10837,1071.7651 726.74932,983.28731 646.27623,881.92227 461.44648,631.3261 347.20216,476.43118 299.70977,414.02428 254.15742,358.93998 l -10.33696,-12.5 4.29148,-0.67588 c 2.36031,-0.37173 138.05397,-0.70923 301.54147,-0.75 l 297.25,-0.0741 V 496.28719 647.6344 l 11.25,0.64824 c 6.1875,0.35654 53.23567,0.65029 104.55149,0.65279 l 93.3015,0.005 -0.5682,166.25 c -0.8968,262.36447 -0.8971,262.37597 -7.0491,292.74997 -0.7071,3.4914 -1.3827,6.9886 -2.0284,10.5 -2.6539,14.4331 -10.766,35.8914 -17.2328,45.5849 -7.6533,11.472 -12.9913,16.2802 -24.7245,22.2705 -7.06113,3.605 -18.40966,4.8999 -29.99999,3.423 z"
     id="path6873"
     inkscape:connector-curvature="0"
     transform="scale(0.74999998)" />
  <path
     style="opacity:1;fill:none;fill-opacity:1;stroke-width:1;stroke-linejoin:round;stroke-miterlimit:30.29999924;stroke-dasharray:none;paint-order:stroke fill markers"
     d="M 974.40341,1189.7184 C 937.20745,1184.9789 878.88448,1142.8503 811.10837,1071.7651 726.74932,983.28731 646.27623,881.92227 461.44648,631.3261 347.20216,476.43118 299.70977,414.02428 254.15742,358.93998 l -10.33696,-12.5 4.29148,-0.67588 c 2.36031,-0.37173 138.05397,-0.70923 301.54147,-0.75 l 297.25,-0.0741 V 496.28719 647.6344 l 11.25,0.64824 c 6.1875,0.35654 53.23567,0.65029 104.55149,0.65279 l 93.3015,0.005 -0.5682,166.25 c -0.8968,262.36447 -0.8971,262.37597 -7.0491,292.74997 -0.7071,3.4914 -1.3827,6.9886 -2.0284,10.5 -2.6539,14.4331 -10.766,35.8914 -17.2328,45.5849 -7.6533,11.472 -12.9913,16.2802 -24.7245,22.2705 -7.06113,3.605 -18.40966,4.8999 -29.99999,3.423 z"
     id="path6875"
     inkscape:connector-curvature="0"
     transform="scale(0.74999998)" />
  <path
     style="opacity:1;fill:none;fill-opacity:1;stroke-width:1;stroke-linejoin:round;stroke-miterlimit:30.29999924;stroke-dasharray:none;paint-order:stroke fill markers"
     d="M 974.40341,1189.7184 C 937.20745,1184.9789 878.88448,1142.8503 811.10837,1071.7651 726.74932,983.28731 646.27623,881.92227 461.44648,631.3261 347.20216,476.43118 299.70977,414.02428 254.15742,358.93998 l -10.33696,-12.5 4.29148,-0.67588 c 2.36031,-0.37173 138.05397,-0.70923 301.54147,-0.75 l 297.25,-0.0741 V 496.28719 647.6344 l 11.25,0.64824 c 6.1875,0.35654 53.23567,0.65029 104.55149,0.65279 l 93.3015,0.005 -0.5682,166.25 c -0.8968,262.36447 -0.8971,262.37597 -7.0491,292.74997 -0.7071,3.4914 -1.3827,6.9886 -2.0284,10.5 -2.6539,14.4331 -10.766,35.8914 -17.2328,45.5849 -7.6533,11.472 -12.9913,16.2802 -24.7245,22.2705 -7.06113,3.605 -18.40966,4.8999 -29.99999,3.423 z"
     id="path6877"
     inkscape:connector-curvature="0"
     transform="scale(0.74999998)" />
  <path
     style="opacity:1;fill:none;fill-opacity:1;stroke-width:0.70710677;stroke-linejoin:round;stroke-miterlimit:30.29999924;stroke-dasharray:none;paint-order:stroke fill markers"
     d="m 969.40757,1188.7938 c -12.20749,-2.6402 -29.11614,-9.9878 -44.51937,-19.3459 C 865.30262,1133.2472 784.24423,1050.3565 677.28362,916.2461 619.68249,844.0241 575.64906,785.77494 456.16326,623.73941 365.71434,501.08097 331.78821,455.91996 294.50242,408.54343 277.74079,387.24555 250.44168,353.67535 244.33233,346.84837 l -1.42375,-1.59099 h 301.7043 301.7043 v 150.8577 c 0,145.25047 0.0481,150.9012 1.29311,152.02796 1.19081,1.07766 9.44454,1.17025 104.31781,1.17025 h 103.0248 l -0.2362,205.23774 c -0.254,220.87077 -0.066,208.87857 -3.7191,236.90237 -3.356,25.7421 -8.6189,45.7523 -16.2718,61.8663 -8.7747,18.4762 -18.931,29.0029 -33.0607,34.2663 -5.2481,1.9549 -6.72886,2.1817 -15.69433,2.4037 -7.9872,0.1978 -11.18672,-0.033 -16.5632,-1.1959 z"
     id="path6879"
     inkscape:connector-curvature="0"
     transform="scale(0.74999998)"
     inkscape:export-xdpi="96"
     inkscape:export-ydpi="96" />
</svg>
