<?xml version="1.0" encoding="UTF-8" standalone="no"?>
<svg
   xmlns:dc="http://purl.org/dc/elements/1.1/"
   xmlns:cc="http://creativecommons.org/ns#"
   xmlns:rdf="http://www.w3.org/1999/02/22-rdf-syntax-ns#"
   xmlns:svg="http://www.w3.org/2000/svg"
   xmlns="http://www.w3.org/2000/svg"
   xmlns:sodipodi="http://sodipodi.sourceforge.net/DTD/sodipodi-0.dtd"
   xmlns:inkscape="http://www.inkscape.org/namespaces/inkscape"
   version="1.0"
   width="1024.000000pt"
   height="1024.000000pt"
   viewBox="0 0 1024.000000 1024.000000"
   preserveAspectRatio="xMidYMid meet"
   id="svg4033"
   sodipodi:docname="skeg_wip.svg"
   inkscape:version="0.92.3 (2405546, 2018-03-11)">
  <metadata
     id="metadata4039">
    <rdf:RDF>
      <cc:Work
         rdf:about="">
        <dc:format>image/svg+xml</dc:format>
        <dc:type
           rdf:resource="http://purl.org/dc/dcmitype/StillImage" />
        <dc:title></dc:title>
      </cc:Work>
    </rdf:RDF>
  </metadata>
  <defs
     id="defs4037" />
  <sodipodi:namedview
     pagecolor="#ffffff"
     bordercolor="#666666"
     borderopacity="1"
     objecttolerance="10"
     gridtolerance="10"
     guidetolerance="10"
     inkscape:pageopacity="0"
     inkscape:pageshadow="2"
     inkscape:window-width="4096"
     inkscape:window-height="2097"
     id="namedview4035"
     showgrid="true"
     inkscape:zoom="0.70710678"
     inkscape:cx="1712.0945"
     inkscape:cy="647.28205"
     inkscape:window-x="1912"
     inkscape:window-y="-8"
     inkscape:window-maximized="1"
     inkscape:current-layer="svg4033">
    <inkscape:grid
       type="xygrid"
       id="grid4961" />
  </sodipodi:namedview>
  <path
     style="fill:#000000;stroke:none;stroke-width:0.1"
     inkscape:connector-curvature="0"
     id="path3877"
     d="m 1948.2234,107.61851 c -1.7,1.3 -2.4,16 -2.6,51.5 -0.1,12.4 -0.2,13.3 -2,13.3 -1.4,0 -2.4,-1.3 -3.5,-4.8 -2.2,-6.4 -7.2,-13.2 -9.8,-13.2 -2.5,0 -9.8,7.1 -9.9,9.6 0,1.1 -0.2,2.7 -0.4,3.7 -0.2,1.1 3.1,5.2 9.4,11.6 5.3,5.4 10.2,10.9 10.8,12.4 0.7,1.4 2.1,2.8 3.2,3.2 1.9,0.6 1.9,1.3 1.5,24.3 -0.8,41.1 -1.2,64.5 -1.3,72.1 l -0.1,7.4 -76.7,-0.7 c -42.3,-0.4 -90.7,-1.2 -107.8,-1.9 l -31,-1.2 v -6 c 0,-3.3 0.5,-6.3 1,-6.7 0.7,-0.5 0.6,-0.8 0,-0.8 -0.6,0 -1.1,-0.9 -1.1,-2 0,-1.1 0.5,-2 1.1,-2 0.5,0 0.3,-0.5 -0.5,-1 -1,-0.6 -1.1,-1 -0.3,-1 0.9,0 1,-0.7 0.3,-2.5 -0.5,-1.4 -0.6,-2.5 -0.2,-2.5 0.4,0 0.8,-12.5 0.9,-27.8 0,-15.2 0.3,-32.4 0.5,-38.2 0.3,-10.4 0.3,-10.5 3.1,-11.7 2.1,-0.9 2.7,-1.9 2.7,-4.3 0,-1.6 0.4,-3 0.8,-3 1.6,0 18.3,-17.1 17.7,-18.1 -0.4,-0.5 -0.1,-0.8 0.6,-0.7 0.7,0.2 1.5,-0.5 1.7,-1.5 0.4,-1.8 0.3,-1.8 -2.2,-0.1 -1.5,0.9 -2.4,1.9 -2.1,2.2 0.2,0.3 -0.7,1.5 -2,2.8 -1.4,1.3 -2.5,2.8 -2.5,3.4 0,0.5 -0.4,1.1 -1,1.1 -0.5,0.1 -1.6,0.2 -2.2,0.3 -0.7,0.1 -1.2,0.8 -1,1.5 0.1,0.7 -0.2,1 -0.7,0.7 -0.5,-0.4 -1.4,0.2 -2,1.1 -0.5,1 -1.3,1.5 -1.7,1.1 -0.7,-0.7 2.4,-4 12.4,-13.1 5.1,-4.7 5.3,-5 3.8,-7.2 -0.9,-1.3 -3.2,-3.6 -5.2,-5.1 -2.8,-2.1 -4,-2.5 -5.2,-1.7 -2.6,1.6 -8.1,9.2 -8.8,12.1 -0.9,3.6 -2.3,5.2 -3.9,4.6 -1.1,-0.4 -1.3,-3.5 -1,-14.7 1,-39 1,-40.1 -0.9,-43 -1.4,-2 -2.6,-2.7 -5,-2.7 -4.2,0 -6,1.3 -6.3,4.7 -0.4,3.9 -2.2,44.5 -2.3,51.5 0,2.1 -0.5,2.8 -2,2.8 -1.5,0 -2.3,-1.2 -3.4,-5 -1.5,-5 -7.1,-14 -8.8,-14 -2.2,0 -8.5,4.1 -9.5,6.2 -2.7,5.6 -2.4,6.6 4.4,14.6 3.6,4.3 8.1,9.2 9.9,11 1.8,1.8 3.6,4.1 3.9,5.1 0.3,1 1.6,2.4 3,3.1 l 2.4,1.3 -0.5,23.6 c -0.3,13 -0.6,36.4 -0.8,52.1 l -0.3,28.5 -36.9,-0.5 c -83.3,-1.1 -103.6,-0.5 -109,3.5 -2.2,1.6 -2.5,1.2 12.8,20.7 58.1,74.4 69.8,89.3 118.5,151.8 8.3,10.7 21.5,27.5 29.2,37.3 7.8,9.9 13.8,18.4 13.4,19 -0.3,0.5 -0.2,0.7 0.4,0.4 0.5,-0.3 3.5,2.7 6.6,6.8 5.6,7.3 6.8,9.3 4.5,7.9 -0.7,-0.4 -0.8,-0.3 -0.4,0.5 0.4,0.6 1.1,0.9 1.6,0.6 1.3,-0.8 10.2,11.3 9.4,12.7 -0.4,0.6 -0.3,0.8 0.3,0.5 1.6,-1 3.4,1.8 2.7,3.9 -0.4,1.4 -0.3,1.5 0.4,0.6 0.7,-1 2.2,0.3 6.1,5.2 5.3,6.8 6.4,8.8 3.4,6.5 -1.6,-1.2 -1.7,-1.2 -0.6,0.2 0.7,0.9 0.9,2 0.5,2.5 -0.4,0.4 0,0.3 0.9,-0.4 1.2,-0.9 1.8,-0.9 2.7,0 1.5,1.5 1.6,3.1 0,2.2 -0.7,-0.5 -0.8,-0.3 -0.4,0.5 0.5,0.7 1.1,1 1.4,0.7 0.7,-0.8 4.2,2.4 4.2,3.7 0,0.6 -0.9,0.2 -1.9,-0.7 -1.3,-1.2 -2.1,-1.4 -2.6,-0.6 -0.4,0.6 -0.1,0.9 0.7,0.8 0.7,-0.2 1.2,0.2 1.1,0.9 -0.2,0.7 0.6,1 1.7,0.8 1.4,-0.3 3.3,1.6 7.5,7.1 4.9,6.5 5.5,7.7 4.3,9.2 -1.2,1.5 -1.1,1.6 0.4,0.4 1.4,-1.1 2,-0.8 4.2,2.1 2.7,3.6 3.4,5.3 1.5,4.1 -0.8,-0.5 -0.8,-0.1 0,1.4 0.6,1.2 1.7,2.4 2.4,2.8 0.8,0.5 0.7,0.2 -0.2,-0.9 -0.8,-1 -1.1,-2 -0.8,-2.3 0.3,-0.3 5.3,5.8 11.1,13.5 8.9,11.8 10.5,14.4 9.7,16 -0.8,1.4 -0.7,2.2 0.4,3.1 0.8,0.7 1.5,0.9 1.5,0.4 0,-0.5 0.5,-0.2 1,0.6 0.5,0.8 0.7,3.1 0.5,5 -0.3,2.5 -0.2,3.1 0.5,2 0.6,-1 1,-1.1 1,-0.3 0,0.7 0.5,1.3 1.1,1.3 0.5,0 0.7,-0.5 0.4,-1 -0.3,-0.6 -0.1,-1 0.4,-1 0.6,0 1.1,0.5 1.1,1.1 0,0.6 0.6,0.9 1.4,0.6 1,-0.4 3.9,2.6 8.6,8.9 5.7,7.6 6.9,9.8 6,10.9 -1.3,1.5 -0.4,3.9 1,3 0.5,-0.3 1.3,0.3 1.9,1.2 0.6,1 1.1,1.3 1.1,0.7 0,-1.5 -2.5,-3.6 -3.3,-2.7 -0.4,0.3 -0.7,0.1 -0.7,-0.5 0,-0.6 0.4,-1.3 0.9,-1.6 1.3,-0.8 6.4,6.2 5.5,7.6 -0.4,0.6 -0.3,0.8 0.3,0.5 1.4,-0.9 3.7,1.9 2.7,3.4 -0.4,0.7 -0.3,0.9 0.3,0.6 0.6,-0.4 1.6,0 2.3,0.8 1,1.2 1,1.9 -0.1,3.3 -1.2,1.5 -1.2,1.6 0.2,0.4 1.4,-1.1 3.9,1.8 20,23.5 81.1,109.7 84.6,114.5 101.8,137.3 8.5,11.3 18.5,24.2 22.4,28.8 13,15.4 32.1,32.1 48,41.9 3.1,2 5.5,3.8 5.2,4.1 -0.2,0.3 -1.1,0 -1.9,-0.7 -0.8,-0.6 -1.8,-1 -2.4,-0.9 -0.5,0.2 -0.9,0 -0.8,-0.3 0.2,-1 -14.7,-10.9 -15.5,-10.3 -0.5,0.3 -0.6,1.1 -0.2,1.9 0.3,0.8 0.1,1.5 -0.5,1.5 -1.1,0 -1,-2.5 0.1,-3.6 0.3,-0.4 -1,-2.1 -3.1,-3.9 -2,-1.8 -6.8,-6 -10.7,-9.3 -4.9,-4.3 -7.2,-5.7 -7.8,-4.9 -0.6,0.8 -0.7,0.6 -0.3,-0.5 0.3,-1.1 -1.2,-3.5 -4.6,-7 -2.8,-2.9 -5.5,-5.2 -6,-5 -0.4,0.1 -0.7,-0.1 -0.6,-0.5 0.2,-0.7 -2.9,-6.2 -4.2,-7.3 -0.3,-0.3 -5,-6.4 -10.5,-13.5 -5.4,-7.2 -10.4,-13.3 -10.9,-13.7 -0.6,-0.4 -0.8,-0.8 -0.4,-0.8 0.5,0 -0.2,-1.1 -1.4,-2.5 -1.1,-1.3 -2.6,-2.2 -3.1,-1.8 -0.6,0.3 -0.7,0.1 -0.3,-0.5 0.9,-1.5 -3.4,-7.3 -4.7,-6.5 -0.6,0.3 -0.7,0.1 -0.3,-0.5 0.7,-1.1 -18.1,-27.2 -19.6,-27.2 -0.4,0 -0.8,-0.5 -0.8,-1.1 0,-1.4 -6.9,-10.4 -8,-10.4 -0.5,0 -1.5,-0.6 -2.2,-1.4 -1,-1 -1,-1.2 0,-0.7 2.5,1.5 1,-1.3 -4.3,-8 -3,-3.8 -5.5,-7.3 -5.5,-7.7 0,-0.5 -0.5,-0.5 -1.2,-0.1 -0.6,0.4 -0.8,0.3 -0.5,-0.3 0.9,-1.4 -2.2,-5.5 -3.5,-4.7 -0.7,0.4 -0.8,0.2 -0.4,-0.4 0.8,-1.4 -3.3,-7.4 -4.5,-6.6 -0.5,0.3 -0.2,1.7 0.7,3.2 l 1.6,2.7 -2,-2.5 c -1.5,-1.8 -1.8,-2.8 -1,-3.8 1.4,-1.6 0.3,-2.8 -1.4,-1.5 -1.8,1.4 -4.7,1.2 -4.1,-0.3 0.2,-0.6 0,-1.5 -0.5,-1.8 -2,-1.2 -2,2.5 -0.1,6.9 1.9,4.3 3.4,5.4 5.4,3.7 0.6,-0.4 0.7,-0.3 0.3,0.2 -2.1,2.6 0.3,7.7 6.2,13.7 1.4,1.4 3.4,4.4 4.5,6.7 1.1,2.3 2.6,4.2 3.3,4.2 0.6,0 1.2,0.9 1.2,2 0,1.8 3.2,6 4.5,6 0.9,0 5.4,5.4 5.5,6.4 0,1.6 4.3,9.6 5.2,9.6 0.4,0 0.8,0.5 0.8,1.1 0,1.4 5.5,6.9 6.9,6.9 0.6,0 1.1,0.8 1.1,1.9 0,1 0.6,2.4 1.4,3 0.8,0.7 1.7,2.3 2,3.6 0.3,1.3 1.5,2.9 2.6,3.5 1.1,0.6 2,1.7 2,2.5 0,0.8 0.4,1.5 0.9,1.5 0.5,0 1.6,1.8 2.5,3.9 0.8,2.2 3.1,5.6 5.1,7.6 2,1.9 4.1,4.9 4.7,6.6 0.6,1.8 1.6,2.8 2.3,2.5 1.7,-0.6 3.9,1.9 3,3.4 -0.8,1.4 3.2,6 5.2,6 0.9,0 1.2,0.7 0.8,1.9 -0.4,1.4 0.2,2.1 2.4,3 1.5,0.7 3.7,1.4 4.7,1.5 2.1,0.3 3.2,2.6 1.3,2.6 -0.7,0 0.8,2 3.4,4.5 2.7,2.5 5.2,4.5 5.8,4.5 0.5,0 1.6,1.8 2.5,4 1.4,3.3 2,4 3.8,3.5 1.1,-0.2 1.5,-0.2 0.9,0.1 -2.2,1 -1.4,2.1 2.5,3.7 2.1,0.8 4.4,2.2 5,3 0.7,0.8 2,1.4 3,1.2 0.9,-0.1 1.1,0 0.5,0.2 -0.7,0.3 -1.3,0.8 -1.3,1.3 0,1.2 5,5 6.6,5 0.8,0 1.4,0.4 1.4,0.8 0,0.4 2,2.1 4.5,3.6 2.5,1.6 4.5,3.3 4.5,3.8 0,1.8 3.2,2 4.6,0.2 0.9,-1.1 1.2,-1.3 0.8,-0.5 -0.5,1 -0.1,1.2 1.7,0.7 1.8,-0.4 1.8,-0.3 -0.4,0.6 -3.8,1.6 -3,3.7 2.1,5.7 2.4,1 5.5,3.2 6.9,4.9 3.1,4 4.7,4.1 4.1,0.2 -0.5,-3.3 1.3,-4.7 4,-3 1.4,0.9 1.3,1 -0.5,0.5 -2.1,-0.6 -2.2,-0.4 -1.2,2.4 0.8,2.3 2,3.4 5,4.2 4.1,1.3 5,2.6 2.4,3.5 -0.8,0.4 -1.5,1.2 -1.5,2 0,1.9 2.9,1.8 3.6,-0.1 0.8,-1.9 4.4,-2 4.4,-0.1 0,0.8 1.1,1.7 2.5,2 1.4,0.4 2.5,1.1 2.5,1.6 0,0.6 0.7,1 1.5,1 0.8,0 1.5,-0.5 1.5,-1.2 0,-0.6 1.8,0.8 4,3.2 4,4.4 4.8,6 3,6 -0.5,0 -1,0.7 -1,1.5 0,0.8 0.5,1.5 1,1.5 0.6,0 1,-0.7 1,-1.5 0,-0.8 0.6,-1.5 1.4,-1.5 0.8,0 1.6,-0.7 2,-1.5 0.9,-2.5 9.6,-1.7 9.6,0.9 0.1,0.6 0.9,2.1 1.9,3.4 2.8,3.3 10.2,3.1 12.9,-0.3 2.2,-2.8 4.2,-3.3 4.2,-1 0,1.1 1.1,1.5 3.9,1.5 2.2,0 4.1,0.5 4.4,1.2 0.2,0.8 1,0.1 1.7,-1.5 1.6,-3.2 2.6,-3.4 3.5,-0.6 0.4,1.1 1.8,2.4 3.1,2.9 1.3,0.5 2.4,1.4 2.4,2 0,0.5 0.7,1 1.5,1 1.1,0 1.5,-1.1 1.5,-4 0,-2.2 0.5,-4 1,-4 0.6,0 1,0.6 1,1.4 0,1.4 2.1,2.6 4.5,2.6 0.7,0 1.5,-1 1.9,-2.3 0.4,-1.5 0.9,-1.8 1.4,-1 0.4,0.6 2.1,1.7 3.7,2.3 l 3,1.2 -2.4,1.9 -2.3,1.9 h 3.1 c 2.3,0 3.1,0.5 3.1,1.7 0,1.5 0.2,1.6 1,0.3 0.6,-1 0.6,-1.6 0,-1.8 -0.6,-0.2 -1,-1 -1,-1.8 0,-0.9 1.2,-1.4 3.8,-1.4 2.8,-0.1 4.1,-0.7 5.5,-2.5 1.5,-2.2 1.6,-2.5 0.2,-2.5 -0.8,0 -1.5,-0.7 -1.5,-1.5 0,-1.1 1.1,-1.5 4,-1.5 3.9,0 4,-0.1 4,-3.5 0,-2.4 0.5,-3.5 1.5,-3.5 0.8,0 1.5,0.4 1.5,1 0,0.5 1.5,1 3.4,1 2.5,0 4.3,-0.8 6.5,-3.1 2.6,-2.6 3.1,-3.8 3.1,-8 0,-2.7 0.4,-4.9 0.9,-4.9 1.2,0 7.1,-5.9 7.1,-7.1 0,-0.5 1.8,-0.9 4,-0.9 h 4 v -4 c 0,-3 -0.4,-4 -1.6,-4 -1.5,0 -1.6,-0.9 -1,-6.1 0.3,-3.4 0.6,-10.6 0.6,-16 0,-9.9 0,-9.9 2.5,-9.9 2.3,0 2.5,-0.4 2.5,-4.4 0,-2.6 -0.6,-4.8 -1.5,-5.6 -1.7,-1.4 -2.1,-6 -0.5,-6 0.6,0 1,-1.8 1,-4 0,-2.2 -0.4,-4 -1,-4 -0.6,0 -1,-6 -1,-16 0,-10 0.4,-16 1,-16 0.6,0 1,-1.8 1,-4 0,-2.2 -0.4,-4 -1,-4 -0.5,0 -1,1.8 -1,4 0,2.2 -0.4,4 -1,4 -0.5,0 -1,-1.8 -1,-4 0,-2.2 0.5,-4 1,-4 0.6,0 1,-0.9 1,-2.1 0,-1.1 0.5,-2.9 1,-4 0.7,-1.3 0.7,-1.9 0,-1.9 -0.6,0 -1,-3.3 -1,-8.5 0,-6.9 0.3,-8.5 1.5,-8.5 0.8,0 1.5,-0.5 1.5,-1 0,-0.6 -0.7,-1 -1.5,-1 -0.8,0 -1.5,-0.5 -1.5,-1 0,-0.6 0.7,-1 1.5,-1 2.1,0 1.9,-1.8 -0.2,-2.3 -1.7,-0.4 -1.7,-0.5 0,-0.6 2.3,-0.1 2.5,-8.1 0.2,-8.1 -1.2,0 -1.5,-1.6 -1.5,-8 0,-4.7 0.4,-8 1,-8 0.6,0 1,-0.7 1,-1.5 0,-0.8 -0.4,-1.5 -1,-1.5 -0.5,0 -1,-1.1 -1,-2.5 0,-1.4 -0.4,-2.5 -1,-2.5 -0.6,0 -1,-3.3 -1,-8 0,-4.7 0.4,-8 1,-8 0.6,0 1,-1.8 1,-4 0,-2.9 -0.4,-4 -1.5,-4 -1.1,0 -1.5,-1.1 -1.5,-4 0,-2.9 0.4,-4 1.5,-4 1.1,0 1.5,-1.1 1.5,-4 0,-2.9 -0.4,-4 -1.5,-4 -1.3,0 -1.5,-4.2 -1.5,-32 0,-20.7 -0.4,-32 -1,-32 -0.6,0 -1,-6 -1,-16 0,-13.6 -0.2,-16 -1.5,-16 -1.2,0 -1.5,-1.6 -1.5,-8 0,-7.9 0,-8 -2.5,-8 -2.2,0 -2.5,-0.4 -2.5,-4 0,-2.9 -0.4,-4 -1.5,-4 -1.1,0 -1.5,-1.1 -1.5,-4 0,-2.9 0.4,-4 1.5,-4 1.1,0 1.5,-1.1 1.5,-4 v -4 h -5.5 -5.4 l -0.4,-11.2 c -0.2,-6.2 -0.3,-1 -0.1,11.7 0.2,12.6 0.6,73.6 0.8,135.5 l 0.4,112.5 -0.8,-93.5 c -1.1,-118.1 -2.6,-204 -3.7,-205.1 -0.4,-0.4 -36.1,-1.1 -79.3,-1.5 l -78.5,-0.7 0.2,-37.6 c 0.1,-20.7 0.5,-71.2 0.9,-112.4 l 0.7,-74.7 h -36 -35.9 l 0.3,-19.8 c 0.1,-10.8 0.4,-28.9 0.7,-40.2 0.3,-11.3 0.6,-25.2 0.7,-31 0.2,-10.7 1.3,-14 4.6,-14 0.7,0 1.3,-1 1.3,-2.3 0,-1.5 2.4,-4.3 7.2,-8.6 4.3,-4 7.8,-8.1 9,-10.8 1.3,-2.9 2.3,-4 3.3,-3.7 0.8,0.4 1.5,0.1 1.5,-0.6 0,-0.6 -0.4,-0.8 -1,-0.5 -1.3,0.8 -1.3,-0.8 0.1,-2.2 2.2,-2.2 -3.6,-8.9 -8.7,-9.9 -2.6,-0.5 -3.4,-0.1 -5.9,3.2 -1.6,2 -3.8,6 -4.9,8.8 -1.6,3.9 -2.5,5 -3.9,4.8 -1.7,-0.3 -1.8,-2.2 -1.5,-31.4 0.3,-29.6 0.2,-31 -1.7,-32.4 -2.3,-1.7 -7.6,-1.8 -9.8,-0.2 z m -225.7,6 c 0,1.7 -0.3,2.8 -0.7,2.4 -1,-1 -1.1,-5.6 -0.1,-5.6 0.4,0 0.8,1.4 0.8,3.2 z m -0.5,8.5 c -0.2,1 -0.4,4 -0.4,6.6 -0.1,2.7 -0.4,4.6 -0.8,4.4 -1.1,-0.7 -0.3,-12.7 0.7,-12.7 0.5,0 0.7,0.8 0.5,1.7 z m 228.2,4 0.1,4.8 -0.7,-4 c -0.6,-3.5 -0.5,-5.5 0.3,-5.5 0.1,0 0.3,2.1 0.3,4.7 z m 0,13 c -0.2,1.6 -0.4,0.5 -0.4,-2.2 0,-2.8 0.2,-4 0.4,-2.8 0.2,1.3 0.2,3.5 0,5 z m -228.8,6.3 c -0.2,6 -0.6,11 -1.1,11 -0.4,0 -0.6,-3.7 -0.4,-8.3 0.3,-4.5 0.5,-9.4 0.5,-11 0.1,-1.5 0.4,-2.7 0.7,-2.7 0.3,0 0.4,4.9 0.3,11 z m 228.8,0.2 c -0.3,0.7 -0.5,0.2 -0.5,-1.2 0,-1.4 0.2,-1.9 0.5,-1.3 0.2,0.7 0.2,1.9 0,2.5 z m 0,7.3 c 0,3.1 -0.3,5.1 -0.7,4.6 -0.7,-1.2 -0.4,-10.1 0.3,-10.1 0.2,0 0.4,2.5 0.4,5.5 z m -229.4,8.8 c -0.7,4.7 -1.3,4.6 -1.3,-0.2 0,-2.3 0.4,-4 0.9,-3.7 0.5,0.4 0.7,2.1 0.4,3.9 z m 229.2,6.9 c -0.7,3.4 -2.2,4.2 -1.7,0.8 0.2,-1.6 0.8,-3 1.3,-3 0.4,0 0.6,1 0.4,2.2 z m -235,2.9 c -0.4,0.5 0.1,0.9 0.9,0.9 2.9,0 1.7,1.8 -1.6,2.5 -1.8,0.4 -4.1,1.4 -5,2.2 -1.5,1.3 -1.6,1.3 -1.1,-0.5 0.3,-1.1 1.6,-2.3 2.9,-2.6 1.6,-0.4 2.4,-1.4 2.4,-2.7 0,-1.1 0.5,-1.7 1,-1.4 0.6,0.4 0.8,1.1 0.5,1.6 z m -8.8,4.1 c -0.3,0.8 -0.6,0.5 -0.6,-0.6 -0.1,-1.1 0.2,-1.7 0.5,-1.3 0.3,0.3 0.4,1.2 0.1,1.9 z m 268.3,2.3 c -5.1,5.2 -7.4,6 -3.8,1.2 2.1,-2.7 6.1,-5.6 7.8,-5.7 0.2,0 -1.6,2 -4,4.5 z m -243,-1.5 c 1.2,0.8 1.1,1 -0.7,1 -1.2,0 -2.5,-0.5 -2.8,-1 -0.8,-1.3 1.5,-1.3 3.5,0 z m 199.1,1.7 c 1.3,1.6 1.2,1.7 -0.3,0.4 -1,-0.7 -1.8,-1.5 -1.8,-1.7 0,-0.8 0.8,-0.3 2.1,1.3 z m 17.4,0.3 c -0.3,0.5 -1.3,1 -2.1,1 -0.8,0 -2.8,0.7 -4.4,1.5 -4,2.1 -3.8,1.2 0.3,-1.4 3.3,-2.1 7.3,-2.8 6.2,-1.1 z m -11.8,2.2 c -0.3,0.8 -0.6,0.5 -0.6,-0.6 -0.1,-1.1 0.2,-1.7 0.5,-1.3 0.3,0.3 0.4,1.2 0.1,1.9 z m 28.5,0.8 c 4.2,2.5 1.5,2.5 -3.2,0 -2.1,-1.2 -2.8,-1.9 -1.8,-2 1,0 3.2,0.9 5,2 z m -246.2,0 c 0,0.5 -1.6,1 -3.6,1 -2.1,0 -3.3,-0.4 -2.9,-1 0.3,-0.6 1.9,-1 3.6,-1 1.6,0 2.9,0.4 2.9,1 z m 230,2.8 c 0,0.4 -1.6,1.2 -3.5,1.8 -3.9,1.2 -4.7,0.3 -1.2,-1.4 2.6,-1.3 4.7,-1.5 4.7,-0.4 z m 14.6,5.3 c 0.3,0.6 -0.5,0.3 -2,-0.6 -1.4,-1 -2.6,-1.9 -2.6,-2.2 0,-0.7 3.9,1.7 4.6,2.8 z m -242.8,6.9 c -0.1,4.4 -0.5,8 -0.9,8 -0.4,0 -0.6,-3.6 -0.5,-8 0,-4.4 0.4,-8 0.8,-8 0.4,0 0.7,3.6 0.6,8 z m 228.9,4.2 c -0.2,2.4 -0.4,0.7 -0.4,-3.7 0,-4.4 0.2,-6.3 0.4,-4.3 0.2,2.1 0.2,5.7 0,8 z m -229.2,10.3 c 0,3 -0.3,5.5 -0.7,5.5 -0.5,0 -0.8,-2.5 -0.8,-5.5 0,-3 0.3,-5.5 0.8,-5.5 0.4,0 0.7,2.5 0.7,5.5 z m 229.2,-2.3 c -0.3,0.7 -0.5,0.2 -0.5,-1.2 0,-1.4 0.2,-1.9 0.5,-1.3 0.2,0.7 0.2,1.9 0,2.5 z m 0,8 c -0.2,1.3 -0.4,0.3 -0.4,-2.2 0,-2.5 0.2,-3.5 0.4,-2.3 0.2,1.3 0.2,3.3 0,4.5 z m -229.8,6.5 c 0,3.4 -0.3,5 -0.7,4 -0.7,-1.7 -0.4,-9.7 0.4,-9.7 0.2,0 0.4,2.6 0.3,5.7 z m 229.8,0 c -0.3,1 -0.5,0.4 -0.5,-1.2 0,-1.7 0.2,-2.4 0.5,-1.8 0.2,0.7 0.2,2.1 0,3 z m 0.1,4.8 c -0.1,1.4 -0.6,2.5 -1,2.5 -0.4,0 -0.6,-1 -0.4,-2.3 0.6,-2.8 0.5,-2.7 1.1,-2.7 0.3,0 0.4,1.1 0.3,2.5 z m -230.1,4.7 c -0.3,0.7 -0.5,0.2 -0.5,-1.2 0,-1.4 0.2,-1.9 0.5,-1.3 0.2,0.7 0.2,1.9 0,2.5 z m 230.3,-0.2 c 0,0.5 -0.2,1 -0.4,1 -0.3,0 -0.8,-0.5 -1.1,-1 -0.3,-0.6 -0.1,-1 0.4,-1 0.6,0 1.1,0.4 1.1,1 z m -230,10.1 c 0,4.4 -0.4,7.8 -0.8,7.5 -0.4,-0.2 -0.7,-2.4 -0.6,-4.8 0.1,-2.4 0.2,-5.8 0.3,-7.6 0.1,-1.7 0.3,-3.2 0.6,-3.2 0.3,0 0.5,3.6 0.5,8.1 z m 229.5,-3.1 c 0.3,0.5 0.1,1 -0.4,1 -0.6,0 -1.1,-0.5 -1.1,-1 0,-0.6 0.2,-1 0.4,-1 0.3,0 0.8,0.4 1.1,1 z m -0.3,8.4 c -0.6,4.8 -1.2,4.6 -1.2,-0.5 0,-2.2 0.4,-3.8 0.8,-3.5 0.4,0.3 0.6,2.1 0.4,4 z m -229.2,6.7 c 0,1.6 -0.4,2.8 -0.9,2.5 -0.5,-0.4 -0.8,-1.4 -0.6,-2.4 0.2,-0.9 0.4,-2 0.4,-2.5 0.1,-0.4 0.3,-0.7 0.6,-0.7 0.3,0 0.5,1.4 0.5,3.1 z m 228.7,0.1 c -0.3,0.8 -0.6,0.5 -0.6,-0.6 -0.1,-1.1 0.2,-1.7 0.5,-1.3 0.3,0.3 0.4,1.2 0.1,1.9 z m -229,5.8 c -0.1,2.1 -1,1.8 -1.3,-0.5 -0.1,-0.8 0.2,-1.5 0.6,-1.5 0.5,0 0.8,0.9 0.7,2 z m 0,5 c -0.1,1.1 -0.5,2 -0.9,2 -0.3,0 -0.6,-0.9 -0.5,-2 0.1,-1.1 0.5,-2 0.9,-2 0.3,0 0.6,0.9 0.5,2 z m 229,9.2 c -0.2,1.8 -0.4,0.6 -0.4,-2.7 0,-3.3 0.2,-4.8 0.4,-3.3 0.2,1.5 0.2,4.2 0,6 z m -229.2,-1.2 c 0.3,0.5 0.1,1 -0.4,1 -0.6,0 -1.1,-0.5 -1.1,-1 0,-0.6 0.2,-1 0.4,-1 0.3,0 0.8,0.4 1.1,1 z m 229.2,7.2 c 0.2,1.7 0,1.9 -0.7,0.8 -0.5,-0.8 -0.6,-1.8 -0.4,-2.2 0.8,-1.2 1,-1 1.1,1.4 z m -229.1,11.8 c 0,1.1 -0.4,2 -0.8,2 -0.4,0 -0.8,-0.9 -0.8,-2 0,-1.1 0.4,-2 0.8,-2 0.4,0 0.8,0.9 0.8,2 z m 476.4,295 c 0,3.3 -0.3,4 -2,4 -1.7,0 -2,-0.7 -2,-4 0,-3.3 0.3,-4 2,-4 1.7,0 2,0.7 2,4 z m -4.3,23.2 c -0.3,0.7 -0.5,0.2 -0.5,-1.2 0,-1.4 0.2,-1.9 0.5,-1.3 0.2,0.7 0.2,1.9 0,2.5 z m 3.9,4.5 c -1.1,1.1 -1.7,-0.4 -0.9,-2.3 0.7,-1.8 0.8,-1.8 1.1,-0.1 0.2,1 0.1,2.1 -0.2,2.4 z m -3.9,6.5 c -0.2,1.3 -0.4,0.3 -0.4,-2.2 0,-2.5 0.2,-3.5 0.4,-2.3 0.2,1.3 0.2,3.3 0,4.5 z m 13.3,5.8 c 0,2.9 -0.4,4 -1.5,4 -1.1,0 -1.5,-1.1 -1.5,-4 0,-2.9 0.4,-4 1.5,-4 1.1,0 1.5,1.1 1.5,4 z m -373.1,12.5 c 4.2,5.6 5.2,7.7 2.6,5.5 -0.8,-0.6 -1.9,-0.9 -2.5,-0.5 -0.9,0.6 -1.4,-0.8 -1.1,-2.8 0.2,-1.3 -1.9,-4.7 -2.8,-4.4 -0.9,0.2 -1.1,-0.3 -1.1,-2.3 0,-1.7 0.7,-1.1 4.9,4.5 z m 96.1,140.5 c 0,0.5 -0.5,1 -1.1,1 -0.5,0 -0.7,-0.5 -0.4,-1 0.3,-0.6 0.8,-1 1.1,-1 0.2,0 0.4,0.4 0.4,1 z m 9.6,10.8 c -0.3,0.3 -0.6,0 -0.6,-0.8 0,-1 -0.4,-1 -1.7,0.1 -1.6,1.2 -1.7,1.2 -0.5,-0.2 0.7,-0.9 1,-2.5 0.7,-3.5 -0.4,-1.1 0.1,-0.6 1,0.9 0.9,1.6 1.4,3.1 1.1,3.5 z m 13.9,23.2 c 0.3,0.5 0.1,1 -0.4,1 -0.6,0 -1.1,-0.5 -1.1,-1 0,-0.6 0.2,-1 0.4,-1 0.3,0 0.8,0.4 1.1,1 z m 15.9,15.6 c 0.3,0.8 0.2,1.2 -0.4,0.9 -0.6,-0.3 -1,-1 -1,-1.6 0,-1.4 0.7,-1.1 1.4,0.7 z m 222.3,45.6 c -0.2,2.4 -0.4,0.5 -0.4,-4.2 0,-4.7 0.2,-6.6 0.4,-4.3 0.2,2.4 0.2,6.2 0,8.5 z m -180.9,6.3 c -0.3,0.3 -0.9,-0.2 -1.2,-1.2 -0.6,-1.4 -0.5,-1.5 0.5,-0.6 0.7,0.7 1,1.5 0.7,1.8 z m -1.4,4.4 c -0.6,0.7 -1.1,-0.2 -1.7,-3.4 l -0.6,-3 1.3,3 c 0.8,1.6 1.2,3.2 1,3.4 z m 181.3,-0.2 c -0.3,1 -0.5,0.2 -0.5,-1.7 0,-1.9 0.2,-2.7 0.5,-1.8 0.2,1 0.2,2.6 0,3.5 z m -174.6,6 c -1.2,2 -1.4,1.4 -0.5,-1.2 0.4,-0.9 0.9,-1.4 1.1,-1.1 0.3,0.2 0,1.3 -0.6,2.3 z m 173.6,1.5 c -0.3,0.8 -0.6,0.5 -0.6,-0.6 -0.1,-1.1 0.2,-1.7 0.5,-1.3 0.3,0.3 0.4,1.2 0.1,1.9 z m -166.3,0.7 c -0.8,0.8 -4.3,0.8 -3.8,0 0.2,-0.4 1.3,-0.7 2.4,-0.6 1,0.1 1.7,0.3 1.4,0.6 z m 159.7,16.4 c -1,0.9 -1.1,0.8 -0.5,-0.6 0.3,-1 0.9,-1.5 1.2,-1.2 0.3,0.3 0,1.1 -0.7,1.8 z m -4.3,6.7 c -0.7,1 -1.4,1.7 -1.7,1.5 -0.4,-0.4 1.8,-3.5 2.5,-3.5 0.2,0 -0.1,0.9 -0.8,2 z m -85.1,16.9 c 11.2,4.1 19,6.1 30.3,7.7 l 9.5,1.3 -8,-0.5 c -4.4,-0.2 -9.5,-0.7 -11.4,-1.1 -2.7,-0.5 -3.2,-0.3 -2.6,0.8 0.5,0.8 0.5,1.1 0.1,0.7 -0.4,-0.3 -0.7,-1 -0.6,-1.4 0,-0.4 -5,-2.4 -11.3,-4.5 -6.3,-2 -16,-6 -21.5,-8.8 -5.6,-2.8 -10.8,-4.9 -11.4,-4.7 -0.7,0.1 -1,0.1 -0.5,-0.1 0.4,-0.3 -0.3,-1.3 -1.5,-2.4 -1.3,-1 2.9,0.8 9.2,4.1 6.3,3.2 15.2,7.2 19.7,8.9 z m 77.3,-8.5 c -9.5,9.2 -25.9,17.3 -32.7,16.3 -2.7,-0.4 -2.6,-0.4 0.4,-0.6 7.9,-0.3 22.2,-7.7 31.3,-15.9 6,-5.5 6.7,-5.3 1,0.2 z m -91.7,8.3 c -0.7,0.2 -1.9,0.2 -2.5,0 -0.7,-0.3 -0.2,-0.5 1.2,-0.5 1.4,0 1.9,0.2 1.3,0.5 z m 21.2,8.1 c -0.3,0.3 -1.1,0 -1.8,-0.7 -0.9,-1 -0.8,-1.1 0.6,-0.5 1,0.3 1.5,0.9 1.2,1.2 z m -3.1,0 c 0.2,0.4 -0.4,0.8 -1.4,0.8 -1,0 -1.6,-0.4 -1.4,-0.8 0.3,-0.4 0.9,-0.8 1.4,-0.8 0.5,0 1.1,0.4 1.4,0.8 z m 75.6,7.7 c 0,0.8 -0.7,1.5 -1.5,1.5 -1.6,0 -2,-1.2 -0.8,-2.3 1.1,-1.2 2.3,-0.8 2.3,0.8 z m -59.3,1.1 c -0.3,0.3 -1.2,0.4 -1.9,0.1 -0.8,-0.3 -0.5,-0.6 0.6,-0.6 1.1,-0.1 1.7,0.2 1.3,0.5 z" />
  <path
     style="fill:none;stroke:#000000;stroke-width:5.24999984;stroke-linecap:butt;stroke-linejoin:round;stroke-opacity:1;stroke-miterlimit:4;stroke-dasharray:none"
     d="m 119.42769,261.24009 h 461.56174 v 227.96418 h 155.48134 l 1.30537,280.3137 C 753.62645,1195.6018 317.04592,490.85969 119.42769,261.24009 Z"
     id="path4124"
     inkscape:connector-curvature="0"
     sodipodi:nodetypes="cccccc"
     inkscape:export-xdpi="96"
     inkscape:export-ydpi="96" />
  <rect
     style="opacity:0;stroke-width:5.25;stroke-linejoin:round;stroke-miterlimit:4;stroke-dasharray:none;fill:#000000"
     id="rect4933"
     width="12.746902"
     height="103.03734"
     x="327.1701"
     y="154.02489"
     inkscape:export-xdpi="96"
     inkscape:export-ydpi="96" />
  <rect
     style="opacity:1;fill:#000000;fill-opacity:1;stroke-width:0.19452734;stroke-linejoin:round;stroke-miterlimit:4;stroke-dasharray:none;paint-order:stroke fill markers"
     id="rect4947"
     width="12.750029"
     height="183.36824"
     x="272.25"
     y="75.250008"
     inkscape:export-xdpi="96"
     inkscape:export-ydpi="96" />
  <rect
     y="75.250008"
     x="501"
     height="183.42137"
     width="12.750011"
     id="rect4959"
     style="opacity:1;fill:#000000;fill-opacity:1;stroke-width:0.19455539;stroke-linejoin:round;stroke-miterlimit:4;stroke-dasharray:none;paint-order:stroke fill markers"
     inkscape:export-xdpi="96"
     inkscape:export-ydpi="96" />
  <flowRoot
     xml:space="preserve"
     id="flowRoot4965"
     style="font-style:normal;font-variant:normal;font-weight:normal;font-stretch:normal;font-size:40px;line-height:1.25;font-family:'Segoe Script';-inkscape-font-specification:'Segoe Script';letter-spacing:0px;word-spacing:0px;fill:#000000;fill-opacity:1;stroke:none"
     transform="matrix(2.0467356,2.4872479,-2.3543323,2.1622859,184.2789,-1680.4995)"><flowRegion
       id="flowRegion4967"
       style="font-style:normal;font-variant:normal;font-weight:normal;font-stretch:normal;font-family:'Segoe Script';-inkscape-font-specification:'Segoe Script'"><rect
         id="rect4969"
         width="375"
         height="120"
         x="805"
         y="105.33334"
         style="font-style:normal;font-variant:normal;font-weight:normal;font-stretch:normal;font-family:'Segoe Script';-inkscape-font-specification:'Segoe Script'" /></flowRegion><flowPara
       id="flowPara4971">Slippery</flowPara></flowRoot>  <path
     style="fill:#000000;stroke:#000000;stroke-width:0.75;stroke-linecap:butt;stroke-linejoin:round;stroke-miterlimit:30.29999924;stroke-dasharray:none;stroke-opacity:1"
     d="m 494.24999,139 c 23.31024,2.11957 17.99998,1.10158 26.99999,0.75 3.27181,-0.81573 3.73539,-4.02494 4.84637,-6.04114 l 13.90364,-17.95886 -11.25,-9 -12.75,17.25 c -5.42041,-1.05469 -11.20498,-0.94405 -17.25,0 l -12.75,-20.60155 -12,10.10155 16.86504,21.23745 c 1.88496,2.48548 0.38496,3.91585 3.38496,4.26255 z"
     id="path4977"
     inkscape:connector-curvature="0"
     sodipodi:nodetypes="ccccccccccc"
     inkscape:export-xdpi="96"
     inkscape:export-ydpi="96" />
  <path
     sodipodi:nodetypes="ccccccccccc"
     inkscape:connector-curvature="0"
     id="path4981"
     d="m 265.5,139 c 23.31024,2.11957 17.99998,1.10158 26.99999,0.75 3.27181,-0.81573 3.73539,-4.02494 4.84637,-6.04114 L 311.25,115.75 300,106.75 287.25,124 c -5.42041,-1.05469 -11.20498,-0.94405 -17.25,0 l -12.75,-20.60155 -12,10.10155 16.86504,21.23745 C 264,137.22293 262.5,138.6533 265.5,139 Z"
     style="fill:#000000;stroke:#000000;stroke-width:0.75;stroke-linecap:butt;stroke-linejoin:round;stroke-miterlimit:30.29999924;stroke-dasharray:none;stroke-opacity:1"
     inkscape:export-xdpi="96"
     inkscape:export-ydpi="96" />
</svg>
